<svg width="158" height="33" viewBox="0 0 158 33" fill="none" xmlns="http://www.w3.org/2000/svg">
<path d="M53.699 10.2C53.699 10.771 53.589 11.271 53.369 11.7C53.148 12.128 52.832 12.486 52.422 12.771C52.011 13.057 51.517 13.271 50.939 13.414C50.31 13.563 49.6653 13.6352 49.019 13.629H43.072V1.12599H48.876C50.162 1.12599 51.171 1.41799 51.904 2.00099C52.636 2.58499 53.002 3.37099 53.002 4.35899V4.39499C53.002 4.75199 52.957 5.06799 52.868 5.34099C52.7074 5.85563 52.404 6.31409 51.993 6.66299C51.798 6.8288 51.5854 6.97267 51.359 7.09199C52.085 7.36599 52.657 7.73799 53.073 8.20799C53.49 8.67799 53.699 9.32999 53.699 10.164V10.199V10.2ZM50.269 4.85999V4.82299C50.269 4.40699 50.115 4.08799 49.805 3.86799C49.495 3.64799 49.049 3.53799 48.465 3.53799H45.751V6.17999H48.287C48.894 6.17999 49.377 6.07599 49.734 5.86699C50.091 5.65899 50.269 5.32299 50.269 4.85799V4.85999ZM50.966 9.85999V9.82399C50.966 9.40799 50.806 9.07699 50.484 8.83399C50.162 8.58899 49.644 8.46699 48.93 8.46699H45.75V11.217H49.02C49.626 11.217 50.103 11.107 50.448 10.887C50.793 10.667 50.966 10.324 50.966 9.85999ZM72.911 13.629H70.035L68.892 10.825H63.605L62.462 13.629H59.658L65.016 1.03699H67.552L72.911 13.629V13.629ZM67.91 8.39599L66.249 4.33999L64.588 8.39499H67.91V8.39599ZM88.64 9.93199C88.64 10.551 88.527 11.102 88.3 11.584C88.0818 12.0558 87.7582 12.4711 87.354 12.798C86.9242 13.1384 86.4329 13.393 85.907 13.548C85.3042 13.7272 84.6779 13.8148 84.049 13.808C83.0929 13.8071 82.1443 13.6406 81.245 13.316C80.3199 12.9832 79.4701 12.4699 78.745 11.806L80.37 9.85999C80.9071 10.3025 81.4985 10.6745 82.13 10.967C82.73 11.241 83.389 11.378 84.103 11.378C84.675 11.378 85.118 11.274 85.433 11.066C85.5814 10.9761 85.7035 10.8486 85.7867 10.6963C85.87 10.544 85.9115 10.3725 85.907 10.199V10.164C85.907 9.98499 85.874 9.82699 85.809 9.68999C85.743 9.55299 85.619 9.42499 85.434 9.30599C85.1916 9.15966 84.9341 9.03996 84.666 8.94899C84.2469 8.80274 83.8207 8.67758 83.389 8.57399C82.8079 8.43439 82.2353 8.26143 81.674 8.05599C81.2056 7.88949 80.7658 7.65169 80.37 7.35099C80.0146 7.07317 79.7302 6.71504 79.54 6.30599C79.343 5.88899 79.245 5.37099 79.245 4.75199V4.71599C79.245 4.14499 79.352 3.62999 79.567 3.17099C79.781 2.71299 80.081 2.31699 80.468 1.98399C80.8748 1.63955 81.3454 1.37859 81.853 1.21599C82.4237 1.03202 83.0204 0.941522 83.62 0.947986C84.537 0.947986 85.38 1.08499 86.147 1.35799C86.9133 1.63105 87.6287 2.02984 88.264 2.53799L86.834 4.60899C86.3193 4.25237 85.769 3.95008 85.192 3.70699C84.6829 3.49229 84.1365 3.38015 83.584 3.37699C83.048 3.37699 82.646 3.48099 82.379 3.68899C82.111 3.89799 81.977 4.15699 81.977 4.46599V4.50199C81.977 4.70399 82.015 4.87999 82.093 5.02899C82.17 5.17799 82.31 5.31199 82.513 5.43099C82.715 5.54999 82.992 5.66299 83.343 5.76999C83.694 5.87699 84.138 6.00199 84.673 6.14499C85.305 6.31199 85.867 6.49899 86.361 6.70799C86.856 6.91599 87.272 7.16599 87.611 7.45799C87.951 7.74999 88.207 8.09199 88.38 8.48499C88.552 8.87799 88.639 9.34799 88.639 9.89499V9.93199H88.64ZM105.4 13.263H95.88V0.760986H105.31V3.20799H98.612V5.74399H104.506V8.18999H98.612V10.815H105.399V13.262L105.4 13.263ZM55.252 32.263H52.377L51.234 29.459H45.947L44.804 32.263H42L47.358 19.671H49.894L55.252 32.263V32.263ZM50.252 27.03L48.591 22.976L46.929 27.03H50.252V27.03ZM71.839 24.119C71.839 24.845 71.708 25.482 71.446 26.029C71.1948 26.5635 70.8255 27.034 70.366 27.405C69.907 27.775 69.371 28.051 68.758 28.235C68.1171 28.4236 67.452 28.5169 66.784 28.512H64.694V32.263H61.944V19.761H67.052C67.802 19.761 68.472 19.865 69.062 20.073C69.651 20.282 70.152 20.576 70.562 20.957C70.972 21.338 71.288 21.794 71.508 22.324C71.728 22.854 71.838 23.44 71.838 24.083V24.119H71.839ZM69.053 24.172V24.137C69.053 23.517 68.853 23.047 68.454 22.726C68.055 22.404 67.511 22.243 66.82 22.243H64.695V26.065H66.874C67.564 26.065 68.1 25.884 68.481 25.521C68.862 25.158 69.053 24.708 69.053 24.172V24.172ZM88.533 24.119C88.533 24.845 88.401 25.482 88.14 26.029C87.8885 26.5636 87.5189 27.0341 87.059 27.405C86.601 27.775 86.065 28.051 85.452 28.235C84.8111 28.4236 84.146 28.5169 83.478 28.512H81.388V32.263H78.638V19.761H83.746C84.496 19.761 85.166 19.865 85.756 20.073C86.345 20.282 86.845 20.576 87.256 20.957C87.666 21.338 87.982 21.794 88.202 22.324C88.422 22.854 88.532 23.44 88.532 24.083V24.119H88.533ZM85.746 24.172V24.137C85.746 23.517 85.546 23.047 85.148 22.726C84.749 22.404 84.204 22.243 83.514 22.243H81.388V26.065H83.568C84.258 26.065 84.794 25.884 85.175 25.521C85.555 25.158 85.746 24.708 85.746 24.172V24.172ZM107.512 32.263H104.637L103.494 29.459H98.207L97.064 32.263H94.26L99.618 19.671H102.154L107.512 32.263V32.263ZM102.512 27.03L100.85 22.976L99.19 27.03H102.511H102.512ZM125.009 32.263H121.795L119.115 28.263H116.955V32.263H114.204V19.761H119.919C121.408 19.761 122.566 20.124 123.393 20.851C124.221 21.577 124.634 22.589 124.634 23.887V23.922C124.634 24.934 124.387 25.759 123.894 26.396C123.394 27.0376 122.721 27.5238 121.955 27.798L125.009 32.263V32.263ZM121.849 24.065V24.029C121.849 23.434 121.658 22.988 121.277 22.689C120.896 22.392 120.366 22.243 119.687 22.243H116.954V25.833H119.741C120.419 25.833 120.941 25.673 121.303 25.351C121.667 25.03 121.848 24.601 121.848 24.065H121.849ZM141.399 32.263H131.879V19.761H141.31V22.208H134.612V24.744H140.506V27.191H134.612V29.816H141.399V32.263ZM157.593 32.263H148.609V19.761H151.359V29.763H157.593V32.263Z" fill="#0B0C12"/>
<path fill-rule="evenodd" clip-rule="evenodd" d="M15.5 32C6.94 32 0 25.06 0 16.5C0 7.94 6.94 1 15.5 1C24.06 1 31 7.94 31 16.5C31 25.06 24.06 32 15.5 32ZM15.5 28.5C22.404 28.5 28 23.127 28 16.5C28 9.873 22.404 4.5 15.5 4.5C8.596 4.5 3 9.873 3 16.5C3 23.127 8.596 28.5 15.5 28.5Z" fill="url(#paint0_linear_367_4)"/>
<defs>
<linearGradient id="paint0_linear_367_4" x1="0" y1="1" x2="31" y2="32" gradientUnits="userSpaceOnUse">
<stop stop-color="#18A0FB"/>
<stop offset="1" stop-color="#0061A7"/>
</linearGradient>
</defs>
</svg>
